<svg width="512" height="512" viewBox="0 0 512 512" fill="none" xmlns="http://www.w3.org/2000/svg">
<path d="M384 0H96C60.65 0 32 28.65 32 64V448C32 483.35 60.65 512 96 512H384C419.35 512 448 483.35 448 448V64C448 28.65 419.3 0 384 0ZM240 128C275.35 128 304 156.65 304 192C304 227.35 275.35 256 240 256C204.66 256 176 227.35 176 192C176 156.65 204.7 128 240 128ZM336 384H144C135.2 384 128 376.8 128 368C128 323.8 163.8 288 208 288H272C316.18 288 352 323.82 352 368C352 376.8 344.8 384 336 384ZM496 64H480V160H496C504.8 160 512 152.8 512 144V80C512 71.16 504.8 64 496 64ZM496 192H480V288H496C504.8 288 512 280.8 512 272V208C512 199.2 504.8 192 496 192ZM496 320H480V416H496C504.836 416 512 408.836 512 400V336C512 327.2 504.8 320 496 320Z" fill="white"/>
</svg>
